<?xml version="1.0" encoding="UTF-8"?>
<svg xmlns="http://www.w3.org/2000/svg" version="1.1" viewBox="0 0 79.38 79.37">
  <!-- Generator: Adobe Illustrator 30.3.0, SVG Export Plug-In . SVG Version: 2.1.3 Build 182)  -->
  <g isolation="isolate">
    <g id="Layer_1">
      <g id="Kreis">
        <circle cx="39.69" cy="39.69" r="39.69" fill="#e01c15"/>
      </g>
      <g id="Flügel_hell">
        <path d="M55.73,30.45c2.94-6.52-7.7-15.58-23.77-20.25-1.22-.35-2.43-.67-3.64-.95-.19,1.42-.27,2.88-.25,4.36.16,9.36,4.68,17.62,11.58,22.9,8.12-.07,14.32-2.18,16.07-6.06h.01Z" fill="#fce0d1"/>
        <path d="M56.04,48.39c-1.89-3.82-8.15-5.71-16.28-5.5-6.71,5.52-10.94,13.93-10.77,23.29.03,1.48.16,2.93.4,4.35,1.19-.33,2.4-.68,3.6-1.08,15.9-5.22,26.22-14.66,23.05-21.07v.01Z" fill="#fce0d1"/>
      </g>
      <g id="Schwanz">
        <path d="M52.43,39.48l-32.03-10.82c-1.18-.38-2.49-.04-3.33.88-2.31,2.53-3.75,6.36-3.68,10.63s1.65,8.05,4.04,10.49c.87.89,2.18,1.18,3.35.76l31.63-11.94h.02Z" fill="#fce0d1"/>
      </g>
      <g id="Schatten">
        <path d="M19.12,40.36l17.65,5.38h0c6.29,2.59,10.31,6.51,10.39,10.96.07,4.16-3.31,7.97-8.79,10.74,0,0,15.89-16.42-19.24-27.08h-.01Z" fill="#f39575" isolation="isolate" mix-blend-mode="multiply"/>
      </g>
      <g id="Kopf">
        <path d="M67.87,39.06l-4.55-1.31c-.1-.03-.18-.1-.21-.2-.2-.56-1.11-2.48-4.09-3.14-3.51-.79-5.88,0-5.88,0,0,0-.72.28-.94-.02-.22-.3.28-.58.28-.58h-.01c1.53-.91,2.66-2.02,3.26-3.34,2.6-5.75-5.38-13.48-18.33-18.43,5.58,2.58,9.09,6.27,9.16,10.43.08,4.45-3.8,8.51-10,11.32l-17.45,5.99c-.29.1-.29.52.01.61l17.65,5.38h0c6.29,2.59,10.31,6.51,10.39,10.96.07,4.16-3.31,7.97-8.79,10.74,12.77-5.39,20.48-13.4,17.68-19.06-.47-.94-1.21-1.77-2.17-2.47-.17-.12-.19-.38-.02-.51,3.89-3.14,9.28-4.8,9.28-4.8l4.75-1.25c.15-.05.15-.26,0-.3l-.02-.02Z" fill="#fff"/>
      </g>
    </g>
  </g>
</svg>